<svg width="151" height="151" viewBox="0 0 151 151" fill="none" xmlns="http://www.w3.org/2000/svg">
<path d="M53.6726 75.5605L74.9432 96.8915L79.9159 91.9189L67.1269 79.1297H97.3874V71.9307H67.1269L79.9159 59.1417L74.9432 54.1689L53.6726 75.5605ZM15.7291 75.5105C15.7291 67.3082 17.2979 59.5801 20.4353 52.3262C23.5728 45.0723 27.8568 38.7288 33.2876 33.2956C38.7185 27.8624 45.0592 23.5763 52.3098 20.4375C59.5606 17.2987 67.287 15.7293 75.4893 15.7293C83.7561 15.7293 91.5265 17.298 98.8005 20.4355C106.075 23.5729 112.402 27.857 117.783 33.2878C123.164 38.7186 127.423 45.0594 130.562 52.31C133.701 59.5607 135.271 67.2872 135.271 75.4895C135.271 83.7563 133.702 91.5267 130.564 98.8007C127.427 106.075 123.169 112.402 117.791 117.783C112.412 123.164 106.088 127.424 98.8167 130.562C91.546 133.701 83.7772 135.271 75.5104 135.271C67.308 135.271 59.5799 133.702 52.326 130.565C45.0722 127.427 38.7287 123.169 33.2955 117.791C27.8622 112.412 23.5762 106.088 20.4374 98.8169C17.2986 91.5462 15.7291 83.7774 15.7291 75.5105ZM22.8677 75.5C22.8677 90.1482 27.9938 102.582 38.2459 112.802C48.4981 123.022 60.9161 128.132 75.4998 128.132C90.1481 128.132 102.582 123.022 112.802 112.802C123.022 102.582 128.132 90.1482 128.132 75.5C128.132 60.9162 123.022 48.4983 112.802 38.2461C102.582 27.9939 90.1481 22.8678 75.4998 22.8678C60.9161 22.8678 48.4981 27.9939 38.2459 38.2461C27.9938 48.4983 22.8677 60.9162 22.8677 75.5Z" fill="black"/>
</svg>
