<svg width="48" height="48" viewBox="0 0 48 48" fill="none" xmlns="http://www.w3.org/2000/svg">
<path d="M17.0616 24.0193L23.8231 30.8L25.4038 29.2193L21.3384 25.1538H30.9577V22.8654H21.3384L25.4038 18.8L23.8231 17.2193L17.0616 24.0193ZM5.00009 24.0034C5.00009 21.396 5.49876 18.9394 6.49609 16.6335C7.49343 14.3276 8.85526 12.3112 10.5816 10.5841C12.308 8.85693 14.3236 7.49448 16.6284 6.49671C18.9333 5.49894 21.3894 5.00006 23.9967 5.00006C26.6246 5.00006 29.0946 5.49873 31.4069 6.49606C33.7192 7.4934 35.7306 8.85523 37.441 10.5816C39.1515 12.3079 40.5056 14.3235 41.5033 16.6284C42.5011 18.9332 43 21.3893 43 23.9967C43 26.6245 42.5013 29.0946 41.504 31.4069C40.5067 33.7192 39.1532 35.7305 37.4435 37.441C35.7338 39.1514 33.7233 40.5056 31.412 41.5033C29.1008 42.5011 26.6313 43 24.0034 43C21.396 43 18.9394 42.5013 16.6335 41.504C14.3277 40.5066 12.3112 39.1531 10.5841 37.4435C8.85696 35.7338 7.49451 33.7233 6.49675 31.412C5.49898 29.1008 5.00009 26.6312 5.00009 24.0034ZM7.26929 24C7.26929 28.6564 8.89878 32.609 12.1577 35.8577C15.4167 39.1064 19.3641 40.7308 24 40.7308C28.6564 40.7308 32.609 39.1064 35.8577 35.8577C39.1064 32.609 40.7308 28.6564 40.7308 24C40.7308 19.3641 39.1064 15.4167 35.8577 12.1577C32.609 8.89875 28.6564 7.26926 24 7.26926C19.3641 7.26926 15.4167 8.89875 12.1577 12.1577C8.89878 15.4167 7.26929 19.3641 7.26929 24Z" fill="black"/>
</svg>
