<svg width="45" height="45" viewBox="0 0 45 45" fill="none" xmlns="http://www.w3.org/2000/svg">
<g clip-path="url(#clip0_848_150)">
<path d="M22.4919 31.4122C22.4822 31.383 22.4757 31.3657 22.4703 31.3484C22.2867 30.7921 22.13 30.2261 21.9151 29.6828C20.7798 26.8084 18.8095 24.7063 16.0237 23.3701C15.4242 23.0828 14.7966 22.8689 14.1592 22.6809C13.9853 22.6291 13.8114 22.574 13.6386 22.5211C13.6235 22.5167 13.6094 22.5103 13.5954 22.5059V22.4951C13.8514 22.4163 14.1063 22.3342 14.3634 22.2586C15.6434 21.8805 16.8284 21.3091 17.9075 20.5249C19.5829 19.3075 20.8446 17.7509 21.6958 15.8616C21.9442 15.3086 22.1344 14.7339 22.3115 14.156C22.3634 13.9853 22.4184 13.8157 22.4725 13.6462C22.4768 13.631 22.4833 13.617 22.4941 13.59C22.5135 13.6516 22.5297 13.7002 22.5459 13.7488C22.7133 14.2575 22.8646 14.7739 23.0525 15.2751C23.5818 16.6858 24.3693 17.9399 25.3966 19.0407C26.5859 20.3142 27.9934 21.2691 29.6126 21.9118C30.1332 22.1182 30.6712 22.2705 31.2048 22.4368C31.2664 22.4563 31.3279 22.4757 31.4046 22.4995C31.4025 22.4995 31.4025 22.4995 31.4003 22.5005H45C45 10.1571 34.8429 0 22.5005 0C10.1582 0 0 10.1571 0 22.5005C0 34.844 10.1571 45.0011 22.5005 45.0011C22.5146 45.0011 22.5286 45.0011 22.5427 45.0011L22.4919 31.4133V31.4122Z" fill="white"/>
</g>
<defs>
<clipPath id="clip0_848_150">
<rect width="45" height="45" fill="white"/>
</clipPath>
</defs>
</svg>
