<svg width="42" height="42" viewBox="0 0 42 42" fill="none" xmlns="http://www.w3.org/2000/svg">
<g clip-path="url(#clip0_1294_227)">
<path d="M21.0009 0C9.4015 0 0 9.4015 0 21.0009C0 32.6002 9.4015 42.0017 21.0009 42.0017C32.6002 42.0017 42.0017 32.6002 42.0017 21.0009C42.0017 9.4015 32.5985 0 21.0009 0ZM4.57003 13.8757C7.30996 13.8809 10.0499 13.8983 12.7881 13.8826C13.2517 13.8809 13.5759 14.0273 13.8931 14.3498C15.7633 16.2531 17.6457 18.1424 19.5333 20.0283C19.7215 20.2165 19.969 20.3455 20.1904 20.5006C20.1329 20.5721 20.0754 20.6436 20.0178 20.715C16.9102 20.715 13.8025 20.7115 10.693 20.7203C10.4124 20.7203 10.2782 20.532 10.1196 20.3717C8.84898 19.0923 7.58186 17.8113 6.31647 16.5284C5.48682 15.6883 4.66241 14.8413 3.71424 13.8739C4.12035 13.8739 4.34519 13.8739 4.57003 13.8739V13.8757ZM4.57003 28.1261C4.34519 28.1261 4.12035 28.1261 3.71424 28.1261C4.66241 27.1587 5.48682 26.3134 6.31647 25.4715C7.58186 24.1887 8.84898 22.9077 10.1196 21.6283C10.28 21.468 10.4124 21.278 10.693 21.2797C13.8007 21.2867 16.9084 21.285 20.0178 21.285C20.0754 21.3564 20.1329 21.4279 20.1904 21.4994C19.9708 21.6562 19.7215 21.7835 19.5333 21.9717C17.6457 23.8576 15.7633 25.7487 13.8931 27.6502C13.5759 27.9727 13.2517 28.1208 12.7881 28.1174C10.0481 28.1017 7.30996 28.1174 4.57003 28.1243V28.1261ZM20.6837 31.3697C20.3403 32.2325 19.3677 32.846 18.6618 33.5606C17.2309 35.009 15.7964 36.4522 14.3602 37.8936C14.2661 37.9877 14.1964 38.1254 13.9018 38.1167C13.9018 36.3964 13.9018 34.6709 13.9018 32.9453C13.9018 31.659 13.9018 30.371 13.8914 29.0847C13.8896 28.7971 13.9088 28.5426 14.1354 28.3161C16.2531 26.2001 18.362 24.0754 20.4745 21.9543C20.5163 21.9124 20.5878 21.8967 20.7865 21.8026C20.7865 24.0319 20.7882 26.174 20.7865 28.3161C20.7847 29.3444 21.041 30.4791 20.6854 31.3697H20.6837ZM20.7847 13.6857C20.7882 15.8278 20.7847 17.9699 20.7847 20.1991C20.586 20.1032 20.5146 20.0893 20.4728 20.0475C18.3585 17.928 16.2513 15.8034 14.1336 13.6857C13.907 13.4591 13.8879 13.2064 13.8896 12.917C13.8983 11.6307 13.8983 10.3427 13.9001 9.0564C13.9001 7.33087 13.9001 5.60709 13.9001 3.88505C14.1946 3.87633 14.2661 4.01403 14.3585 4.10815C15.7947 5.54957 17.2309 6.99274 18.6601 8.44113C19.366 9.15574 20.3385 9.76927 20.6819 10.632C21.0375 11.5209 20.7813 12.6573 20.783 13.6857H20.7847ZM29.3305 13.975C31.6242 13.9768 33.9179 13.9837 36.2116 13.9872C36.9053 13.9872 37.5973 13.9872 38.2788 13.9872C38.3189 14.2434 38.169 14.3149 38.0783 14.4038C35.9955 16.4552 33.9057 18.4997 31.8246 20.5529C31.605 20.7708 31.3662 20.8231 31.0682 20.8179C28.1435 20.7795 25.2206 20.7534 22.2959 20.722C22.1896 20.722 22.0571 20.7569 21.9804 20.5599C24.1608 18.4405 26.357 16.3088 28.5444 14.1702C28.7814 13.9384 29.0551 13.975 29.3305 13.975ZM21.3686 19.6204C21.4018 16.7411 21.4401 13.8635 21.4697 10.9841C21.4715 10.7331 21.5429 10.5431 21.719 10.3601C23.8663 8.14309 26.0084 5.92082 28.1505 3.69855C28.2289 3.77001 28.3073 3.84322 28.3858 3.91468C28.3858 5.92431 28.3945 7.93219 28.3823 9.94182C28.3753 11.1113 28.6263 12.3907 28.2324 13.4208C27.828 14.4787 26.6393 15.148 25.7923 15.9864C24.3822 17.3808 22.9495 18.7507 21.5168 20.1399C21.3599 19.9499 21.3669 19.7825 21.3686 19.6204ZM28.3858 38.0853C28.3073 38.1568 28.2289 38.23 28.1505 38.3014C26.0066 36.0792 23.8663 33.8569 21.719 31.6399C21.5412 31.4569 21.4715 31.2669 21.4697 31.0159C21.4401 28.1365 21.4035 25.2572 21.3686 22.3795C21.3669 22.2175 21.3599 22.0501 21.5168 21.8601C22.9495 23.2493 24.3822 24.621 25.7923 26.0136C26.6393 26.8502 27.828 27.5213 28.2324 28.5792C28.6246 29.6076 28.3753 30.8869 28.3823 32.0582C28.3945 34.0678 28.3858 36.0757 28.3858 38.0853ZM38.2788 28.0128C37.5973 28.0128 36.9053 28.0128 36.2116 28.0128C33.9179 28.0163 31.6242 28.0232 29.3305 28.025C29.0551 28.025 28.7814 28.0616 28.5444 27.8298C26.3552 25.6912 24.1591 23.5595 21.9804 21.4401C22.0571 21.2449 22.1896 21.2797 22.2959 21.278C25.2206 21.2449 28.1731 21.3181 31.0978 21.278C31.3959 21.2745 31.5702 21.278 31.8246 21.4471C33.9057 23.5003 35.9955 25.5448 38.0783 27.5962C38.169 27.6851 38.3171 27.7566 38.2788 28.0128Z" fill="white"/>
</g>
<defs>
<clipPath id="clip0_1294_227">
<rect width="42" height="42" fill="white"/>
</clipPath>
</defs>
</svg>
