<svg width="205" height="205" viewBox="0 0 205 205" fill="none" xmlns="http://www.w3.org/2000/svg">
<g clip-path="url(#clip0_1392_1000)">
<path d="M68.1626 136.879H0V205H68.1626V136.879Z" fill="black"/>
<path d="M136.848 119.74H68.3467V136.831H136.848V119.74Z" fill="black"/>
<path d="M119.79 119.74H102.641V136.831H119.79V119.74Z" fill="black"/>
<path d="M85.4961 68.6908H68.3467V85.7814H85.4961V68.6908Z" fill="black"/>
<path d="M136.848 85.6268H68.3467V102.717H136.848V85.6268Z" fill="black"/>
<path d="M119.79 85.6268H102.641V102.717H119.79V85.6268Z" fill="black"/>
<path d="M136.784 68.6908H119.635V85.7814H136.784V68.6908Z" fill="black"/>
<path d="M146.591 146.531H136.847V156.303H146.591V146.531Z" fill="black"/>
<path d="M166.075 146.531H156.331V156.303H166.075V146.531Z" fill="black"/>
<path d="M185.565 146.531H175.82V156.303H185.565V146.531Z" fill="black"/>
<path d="M205.005 146.531H195.261V156.303H205.005V146.531Z" fill="black"/>
<path d="M156.249 156.216H146.505V165.988H156.249V156.216Z" fill="black"/>
<path d="M175.733 156.216H165.988V165.988H175.733V156.216Z" fill="black"/>
<path d="M195.222 156.216H185.478V165.988H195.222V156.216Z" fill="black"/>
<path d="M156.249 136.841H146.505V146.613H156.249V136.841Z" fill="black"/>
<path d="M175.733 136.841H165.988V146.613H175.733V136.841Z" fill="black"/>
<path d="M195.222 136.841H185.478V146.613H195.222V136.841Z" fill="black"/>
<path d="M146.529 165.988H136.784V175.761H146.529V165.988Z" fill="black"/>
<path d="M166.013 165.988H156.269V175.761H166.013V165.988Z" fill="black"/>
<path d="M185.501 165.988H175.757V175.761H185.501V165.988Z" fill="black"/>
<path d="M204.942 165.988H195.197V175.761H204.942V165.988Z" fill="black"/>
<path d="M156.181 175.678H146.437V185.451H156.181V175.678Z" fill="black"/>
<path d="M175.67 175.678H165.926V185.451H175.67V175.678Z" fill="black"/>
<path d="M195.158 175.678H185.414V185.451H195.158V175.678Z" fill="black"/>
<path d="M146.529 185.364H136.784V195.136H146.529V185.364Z" fill="black"/>
<path d="M166.013 185.364H156.269V195.136H166.013V185.364Z" fill="black"/>
<path d="M185.501 185.364H175.757V195.136H185.501V185.364Z" fill="black"/>
<path d="M204.942 185.364H195.197V195.136H204.942V185.364Z" fill="black"/>
<path d="M156.181 195.049H146.437V204.821H156.181V195.049Z" fill="black"/>
<path d="M175.67 195.049H165.926V204.821H175.67V195.049Z" fill="black"/>
<path d="M195.158 195.049H185.414V204.821H195.158V195.049Z" fill="black"/>
<path d="M78.1776 10.0138H68.3896V19.8537H78.1776V10.0138Z" fill="black"/>
<path d="M97.7537 10.0138H87.9658V19.8537H97.7537V10.0138Z" fill="black"/>
<path d="M117.324 10.0138H107.536V19.8537H117.324V10.0138Z" fill="black"/>
<path d="M136.847 10.0138H127.06V19.8537H136.847V10.0138Z" fill="black"/>
<path d="M87.8787 19.7667H78.0908V29.6066H87.8787V19.7667Z" fill="black"/>
<path d="M107.45 19.7667H97.6621V29.6066H107.45V19.7667Z" fill="black"/>
<path d="M127.02 19.7667H117.232V29.6066H127.02V19.7667Z" fill="black"/>
<path d="M87.8787 0.265686H78.0908V10.1056H87.8787V0.265686Z" fill="black"/>
<path d="M107.45 0.265686H97.6621V10.1056H107.45V0.265686Z" fill="black"/>
<path d="M127.02 0.265686H117.232V10.1056H127.02V0.265686Z" fill="black"/>
<path d="M78.1151 29.6018H68.3271V39.4417H78.1151V29.6018Z" fill="black"/>
<path d="M97.6854 29.6018H87.8975V39.4417H97.6854V29.6018Z" fill="black"/>
<path d="M117.262 29.6018H107.474V39.4417H117.262V29.6018Z" fill="black"/>
<path d="M136.784 29.6018H126.996V39.4417H136.784V29.6018Z" fill="black"/>
<path d="M87.8153 39.3547H78.0273V49.1946H87.8153V39.3547Z" fill="black"/>
<path d="M107.387 39.3547H97.5986V49.1946H107.387V39.3547Z" fill="black"/>
<path d="M126.958 39.3547H117.17V49.1946H126.958V39.3547Z" fill="black"/>
<path d="M78.1151 49.1028H68.3271V58.9427H78.1151V49.1028Z" fill="black"/>
<path d="M97.6854 49.1028H87.8975V58.9427H97.6854V49.1028Z" fill="black"/>
<path d="M117.262 49.1028H107.474V58.9427H117.262V49.1028Z" fill="black"/>
<path d="M136.784 49.1028H126.996V58.9427H136.784V49.1028Z" fill="black"/>
<path d="M87.8153 58.8509H78.0273V68.6908H87.8153V58.8509Z" fill="black"/>
<path d="M107.387 58.8509H97.5986V68.6908H107.387V58.8509Z" fill="black"/>
<path d="M126.958 58.8509H117.17V68.6908H126.958V58.8509Z" fill="black"/>
<path d="M146.616 116.823C178.711 116.823 204.729 90.671 204.729 58.4113C204.729 26.1516 178.711 0 146.616 0C114.52 0 88.502 26.1516 88.502 58.4113C88.502 90.671 114.52 116.823 146.616 116.823Z" fill="white"/>
<path d="M152.247 116.658C152.967 116.649 153.069 116.523 153.073 115.77C153.073 112.794 153.073 109.818 153.073 106.838C153.073 99.0993 153.073 91.3607 153.073 83.6173C153.073 73.7291 153.073 63.8409 153.073 53.9575C153.073 53.0639 153.131 52.1751 153.189 51.2814C153.199 51.1316 153.194 50.9771 153.247 50.8418C153.61 49.8805 153.716 48.8613 153.914 47.8613C153.963 47.6295 154.04 47.4121 154.166 47.2092C154.243 47.0836 154.345 46.9532 154.364 46.8131C154.485 45.9726 154.944 45.2673 155.287 44.5234C155.558 43.9341 155.925 43.3786 156.297 42.8424C156.921 41.9391 157.593 41.0696 158.153 40.1228C158.39 39.7218 158.69 39.3595 158.961 38.9827C159.516 38.2099 159.995 37.3887 160.599 36.6496C160.986 36.1762 161.223 35.5965 161.634 35.1279C162.431 34.2246 162.866 33.0701 163.693 32.1765C164.017 31.8238 164.253 31.3794 164.49 30.9543C164.829 30.3602 165.268 29.8481 165.665 29.3023C166.027 28.8096 166.327 28.2734 166.67 27.7662C167.328 26.8097 167.999 25.8629 168.647 24.9016C169.01 24.3606 169.401 23.8341 169.744 23.2785C169.991 22.8824 170.271 22.5105 170.537 22.1289C171.465 20.7908 172.383 19.4431 173.311 18.1098C174.191 16.8442 175.042 15.5496 175.936 14.2937C176.56 13.4242 177.202 12.5498 177.724 11.603C178.367 10.4437 178.778 9.98963 177.338 9.09114C168.038 3.27996 157.08 0.17873 146.128 0.265681C140.332 0.313986 134.546 1.25112 129.022 3.01428C127.262 3.57463 113.516 8.69987 114.884 10.7867C115.464 11.6707 116.01 12.5692 116.662 13.4048C117.025 13.8686 117.271 14.4144 117.644 14.883C118.383 15.8056 118.944 16.8587 119.688 17.7814C119.978 18.1436 120.191 18.5639 120.447 18.9552C121.356 20.3319 122.332 21.6603 123.26 23.0274C123.623 23.5635 124.067 24.0563 124.338 24.6649C124.522 25.0707 124.831 25.4088 125.102 25.7518C125.754 26.5827 126.339 27.4667 126.905 28.3507C127.475 29.2395 128.147 30.0558 128.688 30.9688C129.152 31.7514 129.708 32.476 130.249 33.2054C130.428 33.4469 130.607 33.6788 130.733 33.9493C130.989 34.4855 131.419 34.9057 131.738 35.4033C132.497 36.5723 133.386 37.6592 134.126 38.8378C134.72 39.7895 135.397 40.6831 135.977 41.6444C136.456 42.4366 137.074 43.1467 137.514 43.9727C137.959 44.8084 138.5 45.6006 138.703 46.5523C138.737 46.7165 138.781 46.9001 138.877 47.0257C139.254 47.5039 139.332 48.0691 139.394 48.6391C139.467 49.2719 139.559 49.8998 139.82 50.494C139.941 50.7694 139.975 51.064 139.989 51.3635C140.062 53.3585 140.124 55.3584 140.124 57.3534C140.115 76.7434 140.115 96.1381 140.11 115.528C140.11 116.615 140.129 116.629 141.197 116.687C141.98 116.731 142.759 116.799 143.542 116.789C143.542 116.789 150.976 116.919 152.242 116.658H152.247Z" fill="#E3FF00"/>
<path d="M136.451 62.8651C137.456 64.3095 137.978 66.034 137.978 67.7971C137.978 75.2797 137.978 82.7574 137.978 90.24C137.978 98.423 137.978 106.611 137.978 114.794C137.978 114.924 137.988 115.055 137.969 115.18C137.92 115.485 137.664 115.702 137.36 115.736C136.707 115.803 136.079 115.683 135.489 115.407C127.407 113.567 120.027 110.867 113.178 106.031C106.749 101.49 101.224 95.6502 97.0722 88.9406C95.453 86.3224 94.0464 83.5786 92.8767 80.7286C89.5609 72.6374 88.1978 63.7781 88.744 55.0541C89.0195 50.6486 89.7832 46.2673 91.0303 42.0308C91.6538 39.9151 92.3982 37.8331 93.2585 35.8042C93.5679 35.0748 95.0083 30.8191 95.888 30.8964C96.2022 30.9253 96.5453 30.9302 96.787 31.1524C97.6232 31.906 98.6334 32.4132 99.5663 33.017C100.485 33.6111 101.364 34.2681 102.321 34.8091C102.679 35.012 103.013 35.2487 103.332 35.4999C103.897 35.9395 104.516 36.2825 105.125 36.6448C106.43 37.4225 107.609 38.3789 108.919 39.1518C110.258 39.944 111.505 40.8957 112.83 41.7217C112.839 41.7265 112.849 41.7313 112.859 41.7362C114.41 42.7023 115.879 43.7892 117.281 44.963C117.281 44.963 131.642 55.9429 136.461 62.8651H136.451Z" fill="#E3FF00"/>
<path d="M156.921 62.8651C155.916 64.3095 155.394 66.034 155.394 67.7971C155.394 75.2797 155.394 82.7574 155.394 90.24C155.394 98.423 155.394 106.611 155.394 114.794C155.394 114.924 155.384 115.055 155.404 115.18C155.452 115.485 155.708 115.702 156.013 115.736C157.598 115.9 159.793 115.055 161.339 114.659C163.234 114.175 165.1 113.596 166.937 112.915C170.605 111.557 174.134 109.823 177.459 107.756C184.11 103.621 189.954 98.1621 194.473 91.7423C196.054 89.4961 197.475 87.1339 198.703 84.6752C206.518 69.0869 206.726 49.8612 199.326 34.0749C198.872 33.1039 198.533 31.9977 197.905 31.1379C197.799 30.9978 197.673 30.877 197.484 30.8964C197.17 30.9253 196.827 30.9302 196.585 31.1524C195.749 31.906 194.739 32.4132 193.806 33.017C192.888 33.6111 192.008 34.2681 191.051 34.8091C190.693 35.012 190.36 35.2487 190.041 35.4999C189.475 35.9395 188.857 36.2825 188.248 36.6448C186.943 37.4225 185.763 38.3789 184.453 39.1518C183.114 39.944 181.867 40.8957 180.543 41.7217C180.533 41.7265 180.524 41.7313 180.514 41.7362C178.962 42.7023 177.493 43.7892 176.091 44.963C176.091 44.963 161.731 55.9429 156.912 62.8651H156.921Z" fill="#E3FF00"/>
</g>
<defs>
<clipPath id="clip0_1392_1000">
<rect width="205" height="205" fill="white"/>
</clipPath>
</defs>
</svg>
