<svg width="209" height="209" viewBox="0 0 209 209" fill="none" xmlns="http://www.w3.org/2000/svg">
<path d="M34.6936 0H0.0146484V34.6595H34.6936V0Z" fill="black"/>
<path d="M5.79611 69.2749H0.0146484V75.0531H5.79611V69.2749Z" fill="black"/>
<path d="M17.3635 69.2749H11.582V75.0531H17.3635V69.2749Z" fill="black"/>
<path d="M28.927 69.2749H23.1455V75.0531H28.927V69.2749Z" fill="black"/>
<path d="M40.4651 69.2749H34.6836V75.0531H40.4651V69.2749Z" fill="black"/>
<path d="M52.0285 69.2749H46.2471V75.0531H52.0285V69.2749Z" fill="black"/>
<path d="M63.5959 69.2749H57.8145V75.0531H63.5959V69.2749Z" fill="black"/>
<path d="M11.5676 74.9993H5.78613V80.7775H11.5676V74.9993Z" fill="black"/>
<path d="M23.1311 74.9993H17.3496V80.7775H23.1311V74.9993Z" fill="black"/>
<path d="M34.6936 74.9993H28.9121V80.7775H34.6936V74.9993Z" fill="black"/>
<path d="M46.2326 74.9993H40.4512V80.7775H46.2326V74.9993Z" fill="black"/>
<path d="M57.8 74.9993H52.0186V80.7775H57.8V74.9993Z" fill="black"/>
<path d="M69.3635 74.9993H63.582V80.7775H69.3635V74.9993Z" fill="black"/>
<path d="M5.81565 80.7677H0.0341797V86.5459H5.81565V80.7677Z" fill="black"/>
<path d="M17.3791 80.7677H11.5977V86.5459H17.3791V80.7677Z" fill="black"/>
<path d="M28.9465 80.7677H23.165V86.5459H28.9465V80.7677Z" fill="black"/>
<path d="M40.4807 80.7677H34.6992V86.5459H40.4807V80.7677Z" fill="black"/>
<path d="M52.0481 80.7677H46.2666V86.5459H52.0481V80.7677Z" fill="black"/>
<path d="M63.6115 80.7677H57.8301V86.5459H63.6115V80.7677Z" fill="black"/>
<path d="M11.5822 86.4969H5.80078V92.2752H11.5822V86.4969Z" fill="black"/>
<path d="M23.1447 86.4969H17.3633V92.2752H23.1447V86.4969Z" fill="black"/>
<path d="M34.7131 86.4969H28.9316V92.2752H34.7131V86.4969Z" fill="black"/>
<path d="M46.2522 86.4969H40.4707V92.2752H46.2522V86.4969Z" fill="black"/>
<path d="M57.8147 86.4969H52.0332V92.2752H57.8147V86.4969Z" fill="black"/>
<path d="M69.3772 86.4969H63.5957V92.2752H69.3772V86.4969Z" fill="black"/>
<path d="M5.78147 92.2751H0V98.0534H5.78147V92.2751Z" fill="black"/>
<path d="M17.344 92.2751H11.5625V98.0534H17.344V92.2751Z" fill="black"/>
<path d="M28.9123 92.2751H23.1309V98.0534H28.9123V92.2751Z" fill="black"/>
<path d="M40.4514 92.2751H34.6699V98.0534H40.4514V92.2751Z" fill="black"/>
<path d="M52.0139 92.2751H46.2324V98.0534H52.0139V92.2751Z" fill="black"/>
<path d="M63.5764 92.2751H57.7949V98.0534H63.5764V92.2751Z" fill="black"/>
<path d="M11.5481 98.0044H5.7666V103.783H11.5481V98.0044Z" fill="black"/>
<path d="M23.1155 98.0044H17.334V103.783H23.1155V98.0044Z" fill="black"/>
<path d="M34.6789 98.0044H28.8975V103.783H34.6789V98.0044Z" fill="black"/>
<path d="M46.217 98.0044H40.4355V103.783H46.217V98.0044Z" fill="black"/>
<path d="M57.7805 98.0044H51.999V103.783H57.7805V98.0044Z" fill="black"/>
<path d="M69.3479 98.0044H63.5664V103.783H69.3479V98.0044Z" fill="black"/>
<path d="M5.79611 103.768H0.0146484V109.546H5.79611V103.768Z" fill="black"/>
<path d="M17.3635 103.768H11.582V109.546H17.3635V103.768Z" fill="black"/>
<path d="M28.927 103.768H23.1455V109.546H28.927V103.768Z" fill="black"/>
<path d="M40.4651 103.768H34.6836V109.546H40.4651V103.768Z" fill="black"/>
<path d="M52.0285 103.768H46.2471V109.546H52.0285V103.768Z" fill="black"/>
<path d="M63.5959 103.768H57.8145V109.546H63.5959V103.768Z" fill="black"/>
<path d="M11.5676 109.497H5.78613V115.275H11.5676V109.497Z" fill="black"/>
<path d="M23.1311 109.497H17.3496V115.275H23.1311V109.497Z" fill="black"/>
<path d="M34.6985 109.497H28.917V115.275H34.6985V109.497Z" fill="black"/>
<path d="M46.2326 109.497H40.4512V115.275H46.2326V109.497Z" fill="black"/>
<path d="M57.8 109.497H52.0186V115.275H57.8V109.497Z" fill="black"/>
<path d="M69.3635 109.497H63.582V115.275H69.3635V109.497Z" fill="black"/>
<path d="M5.79123 115.275H0.00976562V121.054H5.79123V115.275Z" fill="black"/>
<path d="M17.3537 115.275H11.5723V121.054H17.3537V115.275Z" fill="black"/>
<path d="M28.9221 115.275H23.1406V121.054H28.9221V115.275Z" fill="black"/>
<path d="M40.4612 115.275H34.6797V121.054H40.4612V115.275Z" fill="black"/>
<path d="M52.0237 115.275H46.2422V121.054H52.0237V115.275Z" fill="black"/>
<path d="M63.5862 115.275H57.8047V121.054H63.5862V115.275Z" fill="black"/>
<path d="M11.5578 121.005H5.77637V126.783H11.5578V121.005Z" fill="black"/>
<path d="M23.1252 121.005H17.3438V126.783H23.1252V121.005Z" fill="black"/>
<path d="M34.6887 121.005H28.9072V126.783H34.6887V121.005Z" fill="black"/>
<path d="M46.2268 121.005H40.4453V126.783H46.2268V121.005Z" fill="black"/>
<path d="M57.7903 121.005H52.0088V126.783H57.7903V121.005Z" fill="black"/>
<path d="M69.3576 121.005H63.5762V126.783H69.3576V121.005Z" fill="black"/>
<path d="M5.79123 126.788H0.00976562V132.566H5.79123V126.788Z" fill="black"/>
<path d="M17.3537 126.788H11.5723V132.566H17.3537V126.788Z" fill="black"/>
<path d="M28.9221 126.788H23.1406V132.566H28.9221V126.788Z" fill="black"/>
<path d="M40.4612 126.788H34.6797V132.566H40.4612V126.788Z" fill="black"/>
<path d="M52.0237 126.788H46.2422V132.566H52.0237V126.788Z" fill="black"/>
<path d="M63.5862 126.788H57.8047V132.566H63.5862V126.788Z" fill="black"/>
<path d="M11.5578 132.512H5.77637V138.29H11.5578V132.512Z" fill="black"/>
<path d="M23.1252 132.512H17.3438V138.29H23.1252V132.512Z" fill="black"/>
<path d="M34.6887 132.512H28.9072V138.29H34.6887V132.512Z" fill="black"/>
<path d="M46.2268 132.512H40.4453V138.29H46.2268V132.512Z" fill="black"/>
<path d="M57.7903 132.512H52.0088V138.29H57.7903V132.512Z" fill="black"/>
<path d="M69.3576 132.512H63.5762V138.29H69.3576V132.512Z" fill="black"/>
<path d="M144.252 69.3092H138.471V75.0874H144.252V69.3092Z" fill="black"/>
<path d="M155.816 69.3092H150.034V75.0874H155.816V69.3092Z" fill="black"/>
<path d="M167.383 69.3092H161.602V75.0874H167.383V69.3092Z" fill="black"/>
<path d="M178.922 69.3092H173.141V75.0874H178.922V69.3092Z" fill="black"/>
<path d="M190.485 69.3092H184.703V75.0874H190.485V69.3092Z" fill="black"/>
<path d="M202.047 69.3092H196.266V75.0874H202.047V69.3092Z" fill="black"/>
<path d="M150.02 75.0385H144.238V80.8167H150.02V75.0385Z" fill="black"/>
<path d="M161.587 75.0385H155.806V80.8167H161.587V75.0385Z" fill="black"/>
<path d="M173.151 75.0385H167.369V80.8167H173.151V75.0385Z" fill="black"/>
<path d="M184.689 75.0385H178.907V80.8167H184.689V75.0385Z" fill="black"/>
<path d="M196.251 75.0385H190.47V80.8167H196.251V75.0385Z" fill="black"/>
<path d="M207.819 75.0385H202.037V80.8167H207.819V75.0385Z" fill="black"/>
<path d="M144.268 80.802H138.486V86.5802H144.268V80.802Z" fill="black"/>
<path d="M155.835 80.802H150.054V86.5802H155.835V80.802Z" fill="black"/>
<path d="M167.399 80.802H161.617V86.5802H167.399V80.802Z" fill="black"/>
<path d="M178.936 80.802H173.154V86.5802H178.936V80.802Z" fill="black"/>
<path d="M190.504 80.802H184.723V86.5802H190.504V80.802Z" fill="black"/>
<path d="M202.067 80.802H196.285V86.5802H202.067V80.802Z" fill="black"/>
<path d="M150.039 86.5312H144.258V92.3095H150.039V86.5312Z" fill="black"/>
<path d="M161.602 86.5312H155.82V92.3095H161.602V86.5312Z" fill="black"/>
<path d="M173.17 86.5312H167.389V92.3095H173.17V86.5312Z" fill="black"/>
<path d="M184.703 86.5312H178.922V92.3095H184.703V86.5312Z" fill="black"/>
<path d="M196.271 86.5312H190.489V92.3095H196.271V86.5312Z" fill="black"/>
<path d="M207.834 86.5312H202.053V92.3095H207.834V86.5312Z" fill="black"/>
<path d="M144.239 92.3094H138.457V98.0877H144.239V92.3094Z" fill="black"/>
<path d="M155.801 92.3094H150.02V98.0877H155.801V92.3094Z" fill="black"/>
<path d="M167.368 92.3094H161.587V98.0877H167.368V92.3094Z" fill="black"/>
<path d="M178.903 92.3094H173.121V98.0877H178.903V92.3094Z" fill="black"/>
<path d="M190.47 92.3094H184.688V98.0877H190.47V92.3094Z" fill="black"/>
<path d="M202.033 92.3094H196.252V98.0877H202.033V92.3094Z" fill="black"/>
<path d="M150.004 98.0387H144.223V103.817H150.004V98.0387Z" fill="black"/>
<path d="M161.572 98.0387H155.791V103.817H161.572V98.0387Z" fill="black"/>
<path d="M173.135 98.0387H167.354V103.817H173.135V98.0387Z" fill="black"/>
<path d="M184.674 98.0387H178.893V103.817H184.674V98.0387Z" fill="black"/>
<path d="M196.237 98.0387H190.455V103.817H196.237V98.0387Z" fill="black"/>
<path d="M207.805 98.0387H202.023V103.817H207.805V98.0387Z" fill="black"/>
<path d="M144.252 103.802H138.471V109.58H144.252V103.802Z" fill="black"/>
<path d="M155.821 103.802H150.039V109.58H155.821V103.802Z" fill="black"/>
<path d="M167.383 103.802H161.602V109.58H167.383V103.802Z" fill="black"/>
<path d="M178.922 103.802H173.141V109.58H178.922V103.802Z" fill="black"/>
<path d="M190.485 103.802H184.703V109.58H190.485V103.802Z" fill="black"/>
<path d="M202.053 103.802H196.271V109.58H202.053V103.802Z" fill="black"/>
<path d="M150.024 109.531H144.242V115.31H150.024V109.531Z" fill="black"/>
<path d="M161.587 109.531H155.806V115.31H161.587V109.531Z" fill="black"/>
<path d="M173.155 109.531H167.373V115.31H173.155V109.531Z" fill="black"/>
<path d="M184.689 109.531H178.907V115.31H184.689V109.531Z" fill="black"/>
<path d="M196.256 109.531H190.475V115.31H196.256V109.531Z" fill="black"/>
<path d="M207.819 109.531H202.037V115.31H207.819V109.531Z" fill="black"/>
<path d="M144.248 115.315H138.467V121.093H144.248V115.315Z" fill="black"/>
<path d="M155.811 115.315H150.029V121.093H155.811V115.315Z" fill="black"/>
<path d="M167.378 115.315H161.597V121.093H167.378V115.315Z" fill="black"/>
<path d="M178.912 115.315H173.131V121.093H178.912V115.315Z" fill="black"/>
<path d="M190.48 115.315H184.698V121.093H190.48V115.315Z" fill="black"/>
<path d="M202.043 115.315H196.262V121.093H202.043V115.315Z" fill="black"/>
<path d="M150.014 121.039H144.232V126.817H150.014V121.039Z" fill="black"/>
<path d="M161.582 121.039H155.801V126.817H161.582V121.039Z" fill="black"/>
<path d="M173.145 121.039H167.363V126.817H173.145V121.039Z" fill="black"/>
<path d="M184.684 121.039H178.902V126.817H184.684V121.039Z" fill="black"/>
<path d="M196.246 121.039H190.465V126.817H196.246V121.039Z" fill="black"/>
<path d="M207.815 121.039H202.033V126.817H207.815V121.039Z" fill="black"/>
<path d="M144.248 126.822H138.467V132.6H144.248V126.822Z" fill="black"/>
<path d="M155.811 126.822H150.029V132.6H155.811V126.822Z" fill="black"/>
<path d="M167.378 126.822H161.597V132.6H167.378V126.822Z" fill="black"/>
<path d="M178.912 126.822H173.131V132.6H178.912V126.822Z" fill="black"/>
<path d="M190.48 126.822H184.698V132.6H190.48V126.822Z" fill="black"/>
<path d="M202.043 126.822H196.262V132.6H202.043V126.822Z" fill="black"/>
<path d="M150.014 132.551H144.232V138.329H150.014V132.551Z" fill="black"/>
<path d="M161.582 132.551H155.801V138.329H161.582V132.551Z" fill="black"/>
<path d="M173.145 132.551H167.363V138.329H173.145V132.551Z" fill="black"/>
<path d="M184.684 132.551H178.902V138.329H184.684V132.551Z" fill="black"/>
<path d="M196.246 132.551H190.465V138.329H196.246V132.551Z" fill="black"/>
<path d="M207.815 132.551H202.033V138.329H207.815V132.551Z" fill="black"/>
<path d="M75.0168 0.254639H69.2354V6.03285H75.0168V0.254639Z" fill="black"/>
<path d="M86.5803 0.254639H80.7988V6.03285H86.5803V0.254639Z" fill="black"/>
<path d="M98.1477 0.254639H92.3662V6.03285H98.1477V0.254639Z" fill="black"/>
<path d="M109.682 0.254639H103.9V6.03285H109.682V0.254639Z" fill="black"/>
<path d="M121.249 0.254639H115.468V6.03285H121.249V0.254639Z" fill="black"/>
<path d="M132.813 0.254639H127.031V6.03285H132.813V0.254639Z" fill="black"/>
<path d="M80.7834 5.979H75.002V11.7572H80.7834V5.979Z" fill="black"/>
<path d="M92.3518 5.979H86.5703V11.7572H92.3518V5.979Z" fill="black"/>
<path d="M103.914 5.979H98.1328V11.7572H103.914V5.979Z" fill="black"/>
<path d="M115.453 5.979H109.672V11.7572H115.453V5.979Z" fill="black"/>
<path d="M127.016 5.979H121.234V11.7572H127.016V5.979Z" fill="black"/>
<path d="M138.584 5.979H132.803V11.7572H138.584V5.979Z" fill="black"/>
<path d="M75.0315 11.7474H69.25V17.5257H75.0315V11.7474Z" fill="black"/>
<path d="M86.5998 11.7474H80.8184V17.5257H86.5998V11.7474Z" fill="black"/>
<path d="M98.1623 11.7474H92.3809V17.5257H98.1623V11.7474Z" fill="black"/>
<path d="M109.701 11.7474H103.92V17.5257H109.701V11.7474Z" fill="black"/>
<path d="M121.264 11.7474H115.482V17.5257H121.264V11.7474Z" fill="black"/>
<path d="M132.832 11.7474H127.051V17.5257H132.832V11.7474Z" fill="black"/>
<path d="M80.803 17.4767H75.0215V23.2549H80.803V17.4767Z" fill="black"/>
<path d="M92.3664 17.4767H86.585V23.2549H92.3664V17.4767Z" fill="black"/>
<path d="M103.934 17.4767H98.1523V23.2549H103.934V17.4767Z" fill="black"/>
<path d="M115.467 17.4767H109.686V23.2549H115.467V17.4767Z" fill="black"/>
<path d="M127.035 17.4767H121.254V23.2549H127.035V17.4767Z" fill="black"/>
<path d="M138.598 17.4767H132.816V23.2549H138.598V17.4767Z" fill="black"/>
<path d="M75.0022 23.2549H69.2207V29.0331H75.0022V23.2549Z" fill="black"/>
<path d="M86.5647 23.2549H80.7832V29.0331H86.5647V23.2549Z" fill="black"/>
<path d="M98.133 23.2549H92.3516V29.0331H98.133V23.2549Z" fill="black"/>
<path d="M109.666 23.2549H103.885V29.0331H109.666V23.2549Z" fill="black"/>
<path d="M121.235 23.2549H115.453V29.0331H121.235V23.2549Z" fill="black"/>
<path d="M132.797 23.2549H127.016V29.0331H132.797V23.2549Z" fill="black"/>
<path d="M80.7697 28.9841H74.9883V34.7623H80.7697V28.9841Z" fill="black"/>
<path d="M92.3322 28.9841H86.5508V34.7623H92.3322V28.9841Z" fill="black"/>
<path d="M103.9 28.9841H98.1182V34.7623H103.9V28.9841Z" fill="black"/>
<path d="M115.438 28.9841H109.656V34.7623H115.438V28.9841Z" fill="black"/>
<path d="M127.001 28.9841H121.22V34.7623H127.001V28.9841Z" fill="black"/>
<path d="M138.565 28.9841H132.783V34.7623H138.565V28.9841Z" fill="black"/>
<path d="M75.0168 34.7477H69.2354V40.5259H75.0168V34.7477Z" fill="black"/>
<path d="M86.5842 34.7477H80.8027V40.5259H86.5842V34.7477Z" fill="black"/>
<path d="M98.1477 34.7477H92.3662V40.5259H98.1477V34.7477Z" fill="black"/>
<path d="M109.686 34.7477H103.904V40.5259H109.686V34.7477Z" fill="black"/>
<path d="M121.249 34.7477H115.468V40.5259H121.249V34.7477Z" fill="black"/>
<path d="M132.817 34.7477H127.035V40.5259H132.817V34.7477Z" fill="black"/>
<path d="M80.7834 40.4769H75.002V46.2551H80.7834V40.4769Z" fill="black"/>
<path d="M92.3518 40.4769H86.5703V46.2551H92.3518V40.4769Z" fill="black"/>
<path d="M103.914 40.4769H98.1328V46.2551H103.914V40.4769Z" fill="black"/>
<path d="M115.453 40.4769H109.672V46.2551H115.453V40.4769Z" fill="black"/>
<path d="M127.021 40.4769H121.239V46.2551H127.021V40.4769Z" fill="black"/>
<path d="M138.584 40.4769H132.803V46.2551H138.584V40.4769Z" fill="black"/>
<path d="M75.0119 46.2551H69.2305V52.0333H75.0119V46.2551Z" fill="black"/>
<path d="M86.5744 46.2551H80.793V52.0333H86.5744V46.2551Z" fill="black"/>
<path d="M98.1428 46.2551H92.3613V52.0333H98.1428V46.2551Z" fill="black"/>
<path d="M109.676 46.2551H103.895V52.0333H109.676V46.2551Z" fill="black"/>
<path d="M121.244 46.2551H115.463V52.0333H121.244V46.2551Z" fill="black"/>
<path d="M132.807 46.2551H127.025V52.0333H132.807V46.2551Z" fill="black"/>
<path d="M80.7795 51.9844H74.998V57.7626H80.7795V51.9844Z" fill="black"/>
<path d="M92.3469 51.9844H86.5654V57.7626H92.3469V51.9844Z" fill="black"/>
<path d="M103.909 51.9844H98.1279V57.7626H103.909V51.9844Z" fill="black"/>
<path d="M115.447 51.9844H109.666V57.7626H115.447V51.9844Z" fill="black"/>
<path d="M127.011 51.9844H121.229V57.7626H127.011V51.9844Z" fill="black"/>
<path d="M138.578 51.9844H132.797V57.7626H138.578V51.9844Z" fill="black"/>
<path d="M75.0119 57.7626H69.2305V63.5408H75.0119V57.7626Z" fill="black"/>
<path d="M86.5744 57.7626H80.793V63.5408H86.5744V57.7626Z" fill="black"/>
<path d="M98.1428 57.7626H92.3613V63.5408H98.1428V57.7626Z" fill="black"/>
<path d="M109.676 57.7626H103.895V63.5408H109.676V57.7626Z" fill="black"/>
<path d="M121.244 57.7626H115.463V63.5408H121.244V57.7626Z" fill="black"/>
<path d="M132.807 57.7626H127.025V63.5408H132.807V57.7626Z" fill="black"/>
<path d="M80.7795 63.4918H74.998V69.27H80.7795V63.4918Z" fill="black"/>
<path d="M92.3469 63.4918H86.5654V69.27H92.3469V63.4918Z" fill="black"/>
<path d="M103.909 63.4918H98.1279V69.27H103.909V63.4918Z" fill="black"/>
<path d="M115.447 63.4918H109.666V69.27H115.447V63.4918Z" fill="black"/>
<path d="M127.011 63.4918H121.229V69.27H127.011V63.4918Z" fill="black"/>
<path d="M138.578 63.4918H132.797V69.27H138.578V63.4918Z" fill="black"/>
<path d="M75.2033 138.364H69.4219V144.142H75.2033V138.364Z" fill="black"/>
<path d="M86.7717 138.364H80.9902V144.142H86.7717V138.364Z" fill="black"/>
<path d="M98.3342 138.364H92.5527V144.142H98.3342V138.364Z" fill="black"/>
<path d="M109.872 138.364H104.091V144.142H109.872V138.364Z" fill="black"/>
<path d="M121.436 138.364H115.654V144.142H121.436V138.364Z" fill="black"/>
<path d="M133.003 138.364H127.222V144.142H133.003V138.364Z" fill="black"/>
<path d="M80.9699 144.093H75.1885V149.871H80.9699V144.093Z" fill="black"/>
<path d="M92.5373 144.093H86.7559V149.871H92.5373V144.093Z" fill="black"/>
<path d="M104.101 144.093H98.3193V149.871H104.101V144.093Z" fill="black"/>
<path d="M115.639 144.093H109.857V149.871H115.639V144.093Z" fill="black"/>
<path d="M127.201 144.093H121.42V149.871H127.201V144.093Z" fill="black"/>
<path d="M138.77 144.093H132.988V149.871H138.77V144.093Z" fill="black"/>
<path d="M75.2229 149.857H69.4414V155.635H75.2229V149.857Z" fill="black"/>
<path d="M86.7854 149.857H81.0039V155.635H86.7854V149.857Z" fill="black"/>
<path d="M98.3537 149.857H92.5723V155.635H98.3537V149.857Z" fill="black"/>
<path d="M109.887 149.857H104.105V155.635H109.887V149.857Z" fill="black"/>
<path d="M121.455 149.857H115.674V155.635H121.455V149.857Z" fill="black"/>
<path d="M133.018 149.857H127.236V155.635H133.018V149.857Z" fill="black"/>
<path d="M80.9895 155.586H75.208V161.364H80.9895V155.586Z" fill="black"/>
<path d="M92.5529 155.586H86.7715V161.364H92.5529V155.586Z" fill="black"/>
<path d="M104.12 155.586H98.3389V161.364H104.12V155.586Z" fill="black"/>
<path d="M115.655 155.586H109.873V161.364H115.655V155.586Z" fill="black"/>
<path d="M127.222 155.586H121.44V161.364H127.222V155.586Z" fill="black"/>
<path d="M138.784 155.586H133.003V161.364H138.784V155.586Z" fill="black"/>
<path d="M75.1887 161.364H69.4072V167.142H75.1887V161.364Z" fill="black"/>
<path d="M86.7512 161.364H80.9697V167.142H86.7512V161.364Z" fill="black"/>
<path d="M98.3186 161.364H92.5371V167.142H98.3186V161.364Z" fill="black"/>
<path d="M109.858 161.364H104.076V167.142H109.858V161.364Z" fill="black"/>
<path d="M121.42 161.364H115.639V167.142H121.42V161.364Z" fill="black"/>
<path d="M132.984 161.364H127.202V167.142H132.984V161.364Z" fill="black"/>
<path d="M80.9553 167.093H75.1738V172.871H80.9553V167.093Z" fill="black"/>
<path d="M92.5237 167.093H86.7422V172.871H92.5237V167.093Z" fill="black"/>
<path d="M104.086 167.093H98.3047V172.871H104.086V167.093Z" fill="black"/>
<path d="M115.624 167.093H109.843V172.871H115.624V167.093Z" fill="black"/>
<path d="M127.188 167.093H121.406V172.871H127.188V167.093Z" fill="black"/>
<path d="M138.755 167.093H132.974V172.871H138.755V167.093Z" fill="black"/>
<path d="M75.2033 172.862H69.4219V178.64H75.2033V172.862Z" fill="black"/>
<path d="M86.7717 172.862H80.9902V178.64H86.7717V172.862Z" fill="black"/>
<path d="M98.3342 172.862H92.5527V178.64H98.3342V172.862Z" fill="black"/>
<path d="M109.872 172.862H104.091V178.64H109.872V172.862Z" fill="black"/>
<path d="M121.436 172.862H115.654V178.64H121.436V172.862Z" fill="black"/>
<path d="M133.003 172.862H127.222V178.64H133.003V172.862Z" fill="black"/>
<path d="M80.9748 178.591H75.1934V184.369H80.9748V178.591Z" fill="black"/>
<path d="M92.5373 178.591H86.7559V184.369H92.5373V178.591Z" fill="black"/>
<path d="M104.106 178.591H98.3242V184.369H104.106V178.591Z" fill="black"/>
<path d="M115.639 178.591H109.857V184.369H115.639V178.591Z" fill="black"/>
<path d="M127.207 178.591H121.426V184.369H127.207V178.591Z" fill="black"/>
<path d="M138.77 178.591H132.988V184.369H138.77V178.591Z" fill="black"/>
<path d="M75.1985 184.369H69.417V190.147H75.1985V184.369Z" fill="black"/>
<path d="M86.761 184.369H80.9795V190.147H86.761V184.369Z" fill="black"/>
<path d="M98.3283 184.369H92.5469V190.147H98.3283V184.369Z" fill="black"/>
<path d="M109.867 184.369H104.086V190.147H109.867V184.369Z" fill="black"/>
<path d="M121.43 184.369H115.648V190.147H121.43V184.369Z" fill="black"/>
<path d="M132.993 184.369H127.212V190.147H132.993V184.369Z" fill="black"/>
<path d="M80.9651 190.098H75.1836V195.877H80.9651V190.098Z" fill="black"/>
<path d="M92.5334 190.098H86.752V195.877H92.5334V190.098Z" fill="black"/>
<path d="M104.096 190.098H98.3145V195.877H104.096V190.098Z" fill="black"/>
<path d="M115.634 190.098H109.853V195.877H115.634V190.098Z" fill="black"/>
<path d="M127.197 190.098H121.416V195.877H127.197V190.098Z" fill="black"/>
<path d="M138.765 190.098H132.983V195.877H138.765V190.098Z" fill="black"/>
<path d="M75.1985 195.877H69.417V201.655H75.1985V195.877Z" fill="black"/>
<path d="M86.761 195.877H80.9795V201.655H86.761V195.877Z" fill="black"/>
<path d="M98.3283 195.877H92.5469V201.655H98.3283V195.877Z" fill="black"/>
<path d="M109.867 195.877H104.086V201.655H109.867V195.877Z" fill="black"/>
<path d="M121.43 195.877H115.648V201.655H121.43V195.877Z" fill="black"/>
<path d="M132.993 195.877H127.212V201.655H132.993V195.877Z" fill="black"/>
<path d="M80.9651 201.606H75.1836V207.384H80.9651V201.606Z" fill="black"/>
<path d="M92.5334 201.606H86.752V207.384H92.5334V201.606Z" fill="black"/>
<path d="M104.096 201.606H98.3145V207.384H104.096V201.606Z" fill="black"/>
<path d="M115.634 201.606H109.853V207.384H115.634V201.606Z" fill="black"/>
<path d="M127.197 201.606H121.416V207.384H127.197V201.606Z" fill="black"/>
<path d="M138.765 201.606H132.983V207.384H138.765V201.606Z" fill="black"/>
<path d="M69.3782 34.6595H34.6992V69.319H69.3782V34.6595Z" fill="black"/>
<path d="M149.96 209C182.567 209 209 182.582 209 149.994C209 117.405 182.567 90.9873 149.96 90.9873C117.354 90.9873 90.9209 117.405 90.9209 149.994C90.9209 182.582 117.354 209 149.96 209Z" fill="white"/>
<path d="M138.956 133.682C138.956 131.352 138.873 129.016 138.976 126.685C139.143 122.939 137.457 120.339 134.302 118.502C128.496 115.128 122.709 111.72 116.908 108.342C113.601 106.417 113.342 104.591 116.242 102.049C120.147 98.6312 124.851 96.5843 129.682 94.8998C147.545 88.6809 164.625 90.5123 180.887 100.12C182.131 100.854 183.287 101.731 184.238 102.833C185.972 104.831 185.752 106.559 183.479 107.906C177.511 111.436 171.509 114.913 165.512 118.4C162.989 119.864 161.151 121.837 160.75 124.839C160.632 125.71 160.671 126.611 160.671 127.498C160.666 132.16 160.671 136.826 160.661 141.488C160.652 145.381 158.001 148.059 154.086 148.108C151.195 148.143 148.31 148.138 145.419 148.118C141.872 148.099 139.049 145.381 138.966 141.836C138.902 139.118 138.951 136.395 138.951 133.673L138.956 133.682Z" fill="#E3FF00"/>
<path d="M111.95 117.841C111.95 120.677 111.99 123.507 111.941 126.342C111.892 129.403 113.156 131.592 115.816 133.183C122.2 137.002 128.516 140.939 134.851 144.847C139.451 147.682 139.564 153.279 134.988 156.164C128.795 160.076 122.563 163.945 116.247 167.661C113.234 169.434 111.852 171.794 111.916 175.271C112.024 180.936 111.95 186.602 111.931 192.268C111.931 192.958 112.225 193.854 111.411 194.226C110.515 194.643 109.839 193.972 109.231 193.389C102.651 187.038 97.5505 179.649 94.6255 170.996C86.8891 148.099 91.2497 127.601 107.389 109.61C108.129 108.787 108.942 108.023 109.77 107.289C110.221 106.892 110.755 106.491 111.421 106.863C112.014 107.191 111.936 107.793 111.936 108.346C111.936 111.515 111.936 114.678 111.936 117.846L111.95 117.841Z" fill="#E3FF00"/>
<path d="M209 150.557C208.756 167.103 202.788 181.25 191.112 192.997C190.838 193.272 190.554 193.536 190.245 193.776C189.755 194.163 189.206 194.525 188.569 194.261C187.859 193.967 187.977 193.267 187.977 192.669C187.967 186.837 187.883 181 187.996 175.168C188.065 171.74 186.668 169.414 183.743 167.681C177.438 163.94 171.205 160.081 164.978 156.217C160.441 153.402 160.456 147.731 165.027 144.876C171.147 141.052 177.276 137.228 183.503 133.58C186.614 131.758 188.109 129.378 188.006 125.73C187.854 120.123 187.957 114.507 187.977 108.895C187.977 108.16 187.663 107.196 188.589 106.824C189.5 106.456 190.162 107.186 190.745 107.764C200.323 117.234 206.345 128.546 208.334 141.924C208.76 144.783 209.02 147.658 208.991 150.557H209Z" fill="#E3FF00"/>
</svg>
