<svg width="164" height="209" viewBox="0 0 164 209" fill="none" xmlns="http://www.w3.org/2000/svg">
<g clip-path="url(#clip0_1288_5598)">
<path d="M69.669 191.566H0V209H69.669V191.566Z" fill="black"/>
<path d="M52.333 191.566H34.8887V209H52.333V191.566Z" fill="black"/>
<path d="M69.669 156.768H0V174.202H69.669V156.768Z" fill="black"/>
<path d="M52.333 156.768H34.8887V174.202H52.333V156.768Z" fill="black"/>
<path d="M69.6201 139.493H52.1758V156.926H69.6201V139.493Z" fill="black"/>
<path d="M79.6647 10.057H69.7085V20.0944H79.6647V10.057Z" fill="black"/>
<path d="M99.572 10.057H89.6157V20.0944H99.572V10.057Z" fill="black"/>
<path d="M119.485 10.057H109.528V20.0944H119.485V10.057Z" fill="black"/>
<path d="M139.343 10.057H129.387V20.0944H139.343V10.057Z" fill="black"/>
<path d="M89.5324 20.0056H79.5762V30.043H89.5324V20.0056Z" fill="black"/>
<path d="M109.44 20.0056H99.4834V30.043H109.44V20.0056Z" fill="black"/>
<path d="M129.347 20.0056H119.391V30.043H129.347V20.0056Z" fill="black"/>
<path d="M89.5324 0.113342H79.5762V10.1507H89.5324V0.113342Z" fill="black"/>
<path d="M109.44 0.113342H99.4834V10.1507H109.44V0.113342Z" fill="black"/>
<path d="M129.347 0.113342H119.391V10.1507H129.347V0.113342Z" fill="black"/>
<path d="M79.6008 30.0381H69.6445V40.0754H79.6008V30.0381Z" fill="black"/>
<path d="M99.508 30.0381H89.5518V40.0754H99.508V30.0381Z" fill="black"/>
<path d="M119.421 30.0381H109.464V40.0754H119.421V30.0381Z" fill="black"/>
<path d="M139.279 30.0381H129.323V40.0754H139.279V30.0381Z" fill="black"/>
<path d="M89.4636 39.9867H79.5073V50.024H89.4636V39.9867Z" fill="black"/>
<path d="M109.376 39.9867H99.4199V50.024H109.376V39.9867Z" fill="black"/>
<path d="M129.283 39.9867H119.327V50.024H129.283V39.9867Z" fill="black"/>
<path d="M79.6008 49.9304H69.6445V59.9677H79.6008V49.9304Z" fill="black"/>
<path d="M99.508 49.9304H89.5518V59.9677H99.508V49.9304Z" fill="black"/>
<path d="M119.421 49.9304H109.464V59.9677H119.421V49.9304Z" fill="black"/>
<path d="M139.279 49.9304H129.323V59.9677H139.279V49.9304Z" fill="black"/>
<path d="M109.376 59.8741H99.4199V69.9114H109.376V59.8741Z" fill="black"/>
<path d="M34.7065 70.5766H0.0292969V104.704H34.7065V70.5766Z" fill="black"/>
<path d="M56.0058 104.709H34.8101V139.463H56.0058V104.709Z" fill="black"/>
<path d="M34.7314 35.2908L69.7085 35.2908V3.8147e-06L34.7314 3.8147e-06L34.7314 35.2908Z" fill="black"/>
<path d="M0.0293617 70.5766H34.7065L34.7065 35.2858L0.0293617 35.2858L0.0293617 70.5766Z" fill="black"/>
<path d="M104.764 45.4217C72.0488 45.4217 45.5234 72.0007 45.5234 104.793C45.5234 137.586 72.0439 164.165 104.764 164.165C137.485 164.165 164.005 137.586 164.005 104.793C164.005 72.0007 137.485 45.4217 104.764 45.4217ZM58.4198 84.6496C66.1488 84.6643 73.8778 84.7136 81.6019 84.6693C82.9097 84.6644 83.8242 85.0783 84.719 85.9898C89.9946 91.3707 95.3046 96.7121 100.629 102.044C101.16 102.576 101.858 102.94 102.483 103.379C102.321 103.581 102.158 103.783 101.996 103.985C93.2298 103.985 84.4634 103.975 75.692 104C74.9005 104 74.5219 103.468 74.0745 103.014C70.4902 99.3976 66.9158 95.7759 63.3463 92.1492C61.006 89.7742 58.6804 87.3794 56.0058 84.6446C57.1513 84.6446 57.7856 84.6446 58.4198 84.6446V84.6496ZM58.4198 124.937C57.7856 124.937 57.1513 124.937 56.0058 124.937C58.6804 122.202 61.006 119.812 63.3463 117.432C66.9158 113.806 70.4902 110.184 74.0745 106.567C74.5268 106.114 74.9005 105.577 75.692 105.582C84.4584 105.601 93.2248 105.596 101.996 105.596C102.158 105.798 102.321 106 102.483 106.202C101.863 106.646 101.16 107.006 100.629 107.538C95.3046 112.869 89.9946 118.216 84.719 123.592C83.8242 124.503 82.9097 124.922 81.6019 124.912C73.8729 124.868 66.1488 124.912 58.4198 124.932V124.937ZM103.874 134.107C102.906 136.546 100.162 138.281 98.171 140.301C94.1344 144.396 90.088 148.476 86.0367 152.551C85.7712 152.817 85.5745 153.206 84.7436 153.181C84.7436 148.318 84.7436 143.44 84.7436 138.561C84.7436 134.925 84.7436 131.283 84.7141 127.647C84.7092 126.834 84.7633 126.114 85.4024 125.474C91.3762 119.492 97.3253 113.485 103.284 107.489C103.402 107.37 103.604 107.326 104.164 107.06C104.164 113.362 104.169 119.418 104.164 125.474C104.159 128.381 104.882 131.589 103.879 134.107H103.874ZM104.159 84.1125C104.169 90.1684 104.159 96.2243 104.159 102.527C103.599 102.256 103.397 102.216 103.279 102.098C97.3155 96.106 91.3713 90.0994 85.3975 84.1125C84.7584 83.4719 84.7043 82.7574 84.7092 81.9394C84.7338 78.3029 84.7338 74.6615 84.7387 71.025C84.7387 66.1468 84.7387 61.2735 84.7387 56.4051C85.5696 56.3805 85.7712 56.7698 86.0318 57.0358C90.0831 61.1109 94.1344 65.1909 98.1661 69.2856C100.157 71.3059 102.901 73.0404 103.869 75.4795C104.872 77.9925 104.15 81.2052 104.155 84.1125H104.159ZM128.266 84.9304C134.736 84.9354 141.206 84.9551 147.677 84.9649C149.634 84.9649 151.586 84.9649 153.508 84.9649C153.621 85.6893 153.198 85.8913 152.943 86.1426C147.067 91.9423 141.172 97.7222 135.302 103.527C134.682 104.143 134.009 104.291 133.168 104.276C124.918 104.167 116.672 104.093 108.422 104.005C108.122 104.005 107.749 104.103 107.532 103.547C113.683 97.5547 119.878 91.5284 126.048 85.4823C126.717 84.827 127.489 84.9304 128.266 84.9304ZM105.807 100.891C105.9 92.7504 106.008 84.6151 106.092 76.4748C106.097 75.7653 106.298 75.2282 106.795 74.7108C112.852 68.443 118.895 62.1604 124.937 55.8779C125.159 56.0799 125.38 56.2869 125.601 56.4889C125.601 62.1703 125.626 67.8468 125.591 73.5282C125.572 76.8345 126.28 80.4513 125.168 83.3635C124.028 86.3545 120.675 88.2466 118.285 90.6168C114.307 94.5588 110.266 98.4318 106.224 102.359C105.782 101.822 105.802 101.349 105.807 100.891ZM125.601 153.093C125.38 153.295 125.159 153.502 124.937 153.704C118.89 147.421 112.852 141.138 106.795 134.871C106.293 134.353 106.097 133.816 106.092 133.107C106.008 124.966 105.905 116.826 105.807 108.691C105.802 108.233 105.782 107.76 106.224 107.222C110.266 111.15 114.307 115.028 118.285 118.965C120.675 121.33 124.028 123.227 125.168 126.218C126.275 129.125 125.572 132.742 125.591 136.053C125.626 141.735 125.601 147.411 125.601 153.093ZM153.508 124.617C151.586 124.617 149.634 124.617 147.677 124.617C141.206 124.626 134.736 124.646 128.266 124.651C127.489 124.651 126.717 124.755 126.048 124.099C119.873 118.053 113.678 112.027 107.532 106.035C107.749 105.483 108.122 105.582 108.422 105.577C116.672 105.483 125.001 105.69 133.251 105.577C134.092 105.567 134.584 105.577 135.302 106.055C141.172 111.859 147.067 117.639 152.943 123.439C153.198 123.69 153.616 123.892 153.508 124.617Z" fill="#E3FF00"/>
</g>
<defs>
<clipPath id="clip0_1288_5598">
<rect width="164" height="209" fill="white"/>
</clipPath>
</defs>
</svg>
