<svg width="27" height="27" viewBox="0 0 27 27" fill="none" xmlns="http://www.w3.org/2000/svg">
<path d="M12.7406 19.125H14.4281V14.4562H19.125V12.7688H14.4281V7.875H12.7406V12.7688H7.875V14.4562H12.7406V19.125ZM13.5075 24.75C11.9562 24.75 10.4984 24.4547 9.13404 23.8641C7.76968 23.2734 6.57656 22.4672 5.55469 21.4453C4.53281 20.4234 3.72656 19.2296 3.13594 17.8638C2.54531 16.4981 2.25 15.0388 2.25 13.4859C2.25 11.9331 2.54531 10.4738 3.13594 9.10803C3.72656 7.74226 4.53281 6.55312 5.55469 5.54062C6.57656 4.52813 7.77038 3.72656 9.13615 3.13594C10.5019 2.54531 11.9612 2.25 13.5141 2.25C15.0669 2.25 16.5262 2.54531 17.892 3.13594C19.2577 3.72656 20.4469 4.52813 21.4594 5.54062C22.4719 6.55312 23.2734 7.74375 23.8641 9.1125C24.4547 10.4812 24.75 11.9413 24.75 13.4925C24.75 15.0438 24.4547 16.5016 23.8641 17.866C23.2734 19.2303 22.4719 20.4217 21.4594 21.4401C20.4469 22.4586 19.2563 23.2648 17.8875 23.8589C16.5187 24.453 15.0587 24.75 13.5075 24.75Z" fill="black"/>
</svg>
