<svg width="35" height="35" viewBox="0 0 35 35" fill="none" xmlns="http://www.w3.org/2000/svg">
<path d="M17.5003 21.6562L22.8232 16.2969H12.141L17.5003 21.6562ZM17.5003 32.0833C15.5073 32.0833 13.6236 31.7005 11.8493 30.9349C10.075 30.1693 8.5255 29.1241 7.20085 27.7995C5.87619 26.4748 4.83105 24.9253 4.06543 23.151C3.2998 21.3767 2.91699 19.493 2.91699 17.5C2.91699 15.4826 3.2998 13.5868 4.06543 11.8125C4.83105 10.0382 5.87619 8.49478 7.20085 7.18228C8.5255 5.86978 10.075 4.83072 11.8493 4.06509C13.6236 3.29947 15.5073 2.91666 17.5003 2.91666C19.5177 2.91666 21.4135 3.29947 23.1878 4.06509C24.9621 4.83072 26.5055 5.86978 27.818 7.18228C29.1305 8.49478 30.1696 10.0382 30.9352 11.8125C31.7008 13.5868 32.0837 15.4826 32.0837 17.5C32.0837 19.493 31.7008 21.3767 30.9352 23.151C30.1696 24.9253 29.1305 26.4748 27.818 27.7995C26.5055 29.1241 24.9621 30.1693 23.1878 30.9349C21.4135 31.7005 19.5177 32.0833 17.5003 32.0833ZM17.5003 29.8958C20.9517 29.8958 23.8805 28.6866 26.2868 26.2682C28.693 23.8498 29.8962 20.9271 29.8962 17.5C29.8962 14.0486 28.693 11.1198 26.2868 8.71353C23.8805 6.30728 20.9517 5.10416 17.5003 5.10416C14.0732 5.10416 11.1505 6.30728 8.7321 8.71353C6.31369 11.1198 5.10449 14.0486 5.10449 17.5C5.10449 20.9271 6.31369 23.8498 8.7321 26.2682C11.1505 28.6866 14.0732 29.8958 17.5003 29.8958Z" fill="black"/>
</svg>
