<svg width="20" height="20" viewBox="0 0 20 20" fill="none" xmlns="http://www.w3.org/2000/svg">
<g id="visibility_FILL1_wght400_GRAD0_opsz24 10">
<path id="Vector" d="M10.0002 13.3333C11.0418 13.3333 11.9272 12.9688 12.6564 12.2396C13.3856 11.5104 13.7502 10.625 13.7502 9.58334C13.7502 8.54168 13.3856 7.65626 12.6564 6.92709C11.9272 6.19793 11.0418 5.83334 10.0002 5.83334C8.9585 5.83334 8.07308 6.19793 7.34391 6.92709C6.61475 7.65626 6.25016 8.54168 6.25016 9.58334C6.25016 10.625 6.61475 11.5104 7.34391 12.2396C8.07308 12.9688 8.9585 13.3333 10.0002 13.3333ZM10.0002 11.8333C9.37516 11.8333 8.84391 11.6146 8.40641 11.1771C7.96891 10.7396 7.75016 10.2083 7.75016 9.58334C7.75016 8.95834 7.96891 8.42709 8.40641 7.98959C8.84391 7.55209 9.37516 7.33334 10.0002 7.33334C10.6252 7.33334 11.1564 7.55209 11.5939 7.98959C12.0314 8.42709 12.2502 8.95834 12.2502 9.58334C12.2502 10.2083 12.0314 10.7396 11.5939 11.1771C11.1564 11.6146 10.6252 11.8333 10.0002 11.8333ZM10.0002 15.8333C7.97238 15.8333 6.12516 15.2674 4.4585 14.1354C2.79183 13.0035 1.5835 11.4861 0.833496 9.58334C1.5835 7.68057 2.79183 6.1632 4.4585 5.03126C6.12516 3.89932 7.97238 3.33334 10.0002 3.33334C12.0279 3.33334 13.8752 3.89932 15.5418 5.03126C17.2085 6.1632 18.4168 7.68057 19.1668 9.58334C18.4168 11.4861 17.2085 13.0035 15.5418 14.1354C13.8752 15.2674 12.0279 15.8333 10.0002 15.8333Z" fill="white" fill-opacity="0.7"/>
</g>
</svg>
