<svg width="19" height="19" viewBox="0 0 19 19" fill="none" xmlns="http://www.w3.org/2000/svg">
<g id="face_FILL1_wght400_GRAD0_opsz24 10">
<path id="Vector" d="M7.12516 11.2813C6.84808 11.2813 6.61388 11.1856 6.42256 10.9943C6.23124 10.803 6.13558 10.5688 6.13558 10.2917C6.13558 10.0146 6.23124 9.78039 6.42256 9.58907C6.61388 9.39775 6.84808 9.30209 7.12516 9.30209C7.40225 9.30209 7.63645 9.39775 7.82777 9.58907C8.01909 9.78039 8.11475 10.0146 8.11475 10.2917C8.11475 10.5688 8.01909 10.803 7.82777 10.9943C7.63645 11.1856 7.40225 11.2813 7.12516 11.2813ZM11.8752 11.2813C11.5981 11.2813 11.3639 11.1856 11.1726 10.9943C10.9812 10.803 10.8856 10.5688 10.8856 10.2917C10.8856 10.0146 10.9812 9.78039 11.1726 9.58907C11.3639 9.39775 11.5981 9.30209 11.8752 9.30209C12.1522 9.30209 12.3864 9.39775 12.5778 9.58907C12.7691 9.78039 12.8647 10.0146 12.8647 10.2917C12.8647 10.5688 12.7691 10.803 12.5778 10.9943C12.3864 11.1856 12.1522 11.2813 11.8752 11.2813ZM9.50016 15.8333C11.2682 15.8333 12.7658 15.2198 13.9929 13.9927C15.22 12.7656 15.8335 11.2681 15.8335 9.50001C15.8335 9.18334 15.8137 8.87657 15.7741 8.5797C15.7345 8.28282 15.662 7.99584 15.5564 7.71876C15.2793 7.78473 15.0022 7.83421 14.7252 7.8672C14.4481 7.90018 14.1578 7.91668 13.8543 7.91668C12.6536 7.91668 11.5189 7.65939 10.4502 7.1448C9.38141 6.63022 8.471 5.91112 7.71891 4.98751C7.29669 6.01668 6.69304 6.9106 5.90798 7.66928C5.12291 8.42796 4.20919 8.99862 3.16683 9.38126V9.50001C3.16683 11.2681 3.78037 12.7656 5.00745 13.9927C6.23454 15.2198 7.73211 15.8333 9.50016 15.8333ZM9.50016 17.4167C8.40502 17.4167 7.37586 17.2089 6.41266 16.7932C5.44947 16.3776 4.61162 15.8136 3.89912 15.1011C3.18662 14.3886 2.62256 13.5507 2.20693 12.5875C1.79131 11.6243 1.5835 10.5951 1.5835 9.50001C1.5835 8.40487 1.79131 7.3757 2.20693 6.41251C2.62256 5.44932 3.18662 4.61147 3.89912 3.89897C4.61162 3.18647 5.44947 2.62241 6.41266 2.20678C7.37586 1.79116 8.40502 1.58334 9.50016 1.58334C10.5953 1.58334 11.6245 1.79116 12.5877 2.20678C13.5509 2.62241 14.3887 3.18647 15.1012 3.89897C15.8137 4.61147 16.3778 5.44932 16.7934 6.41251C17.209 7.3757 17.4168 8.40487 17.4168 9.50001C17.4168 10.5951 17.209 11.6243 16.7934 12.5875C16.3778 13.5507 15.8137 14.3886 15.1012 15.1011C14.3887 15.8136 13.5509 16.3776 12.5877 16.7932C11.6245 17.2089 10.5953 17.4167 9.50016 17.4167Z" fill="white" fill-opacity="0.7"/>
</g>
</svg>
