<svg width="40" height="40" viewBox="0 0 40 40" fill="none" xmlns="http://www.w3.org/2000/svg">
<path d="M18.5975 0C19.535 0 20.4724 0 21.4109 0C22.0529 0.087643 22.6981 0.154419 23.3349 0.266059C26.9896 0.906688 30.2717 2.3841 33.0413 4.85584C38.5532 9.77742 40.8342 15.9489 39.7286 23.2473C38.9551 28.3577 36.4037 32.5437 32.3251 35.7187C27.4469 39.5155 21.912 40.7665 15.8593 39.5531C12.0124 38.7821 8.69694 36.9405 5.91801 34.1745C2.94178 31.2114 1.05645 27.6576 0.312136 23.5155C0.185821 22.8143 0.102305 22.1059 0 21.4006C0 20.4636 0 19.5267 0 18.5887C0.0887336 17.947 0.157634 17.3032 0.269334 16.6657C0.987555 12.557 2.79459 8.99489 5.71758 6.01816C8.69903 2.98299 12.288 1.06737 16.4857 0.314054C17.1861 0.18885 17.8939 0.104337 18.5975 0.00104339V0ZM16.9064 26.4765C16.9064 28.2722 16.9137 30.0678 16.8991 31.8635C16.8959 32.1817 16.9742 32.2871 17.3062 32.2829C18.6341 32.2652 19.9619 32.262 21.2898 32.285C21.6531 32.2912 21.7345 32.1838 21.7335 31.8332C21.7199 28.2419 21.7293 24.6517 21.7189 21.0604C21.7189 20.7724 21.7857 20.6848 22.0821 20.6921C22.9413 20.713 23.8004 20.69 24.6596 20.7057C24.9101 20.7098 24.9926 20.6347 25.0145 20.3833C25.1127 19.2575 25.2108 18.1296 25.3569 17.009C25.405 16.6428 25.2953 16.6063 24.9874 16.6115C24.0374 16.6282 23.0864 16.6052 22.1364 16.624C21.8243 16.6303 21.7022 16.5645 21.7168 16.2234C21.745 15.5608 21.723 14.8962 21.7262 14.2326C21.7303 13.4303 22.0926 13.0672 22.8964 13.063C23.6125 13.0588 24.3287 13.0546 25.0448 13.0661C25.2661 13.0692 25.335 12.9983 25.3329 12.7771C25.3235 11.6451 25.3246 10.513 25.3329 9.38094C25.334 9.17957 25.2713 9.10549 25.0667 9.10966C23.7785 9.1347 22.4903 9.05019 21.2021 9.12427C18.7729 9.26408 17.1078 10.9335 16.946 13.3708C16.8834 14.3077 16.9095 15.2436 16.9158 16.1795C16.9178 16.5072 16.8531 16.647 16.4898 16.624C15.971 16.5906 15.449 16.624 14.9281 16.6115C14.7079 16.6063 14.6045 16.647 14.6066 16.9057C14.6202 18.0764 14.6181 19.2481 14.6076 20.4187C14.6056 20.6431 14.6755 20.7088 14.8947 20.7025C15.3885 20.6879 15.8844 20.6932 16.3781 20.6994C16.9596 20.7057 16.9043 20.6045 16.9053 21.2075C16.9084 22.9635 16.9064 24.7206 16.9064 26.4765Z" fill="white"/>
</svg>
