<svg width="18" height="18" viewBox="0 0 18 18" fill="none" xmlns="http://www.w3.org/2000/svg">
<g id="hiking_FILL0_wght400_GRAD0_opsz24 10">
<path id="Vector" d="M5.2502 17.25L7.55645 5.5875C7.63145 5.225 7.8002 4.95313 8.0627 4.77188C8.3252 4.59063 8.6002 4.5 8.8877 4.5C9.1752 4.5 9.44082 4.5625 9.68457 4.6875C9.92832 4.8125 10.1252 5 10.2752 5.25L11.0252 6.45C11.2502 6.8125 11.5408 7.14062 11.8971 7.43438C12.2533 7.72813 12.6627 7.94375 13.1252 8.08125V6.75H14.2502V17.25H13.1252V9.6375C12.5252 9.5 11.9689 9.28125 11.4564 8.98125C10.9439 8.68125 10.5002 8.3125 10.1252 7.875L9.6752 10.125L11.2502 11.625V17.25H9.7502V12.75L8.1752 11.25L6.8252 17.25H5.2502ZM5.56895 9.84375L3.9752 9.54375C3.7752 9.50625 3.61895 9.40313 3.50645 9.23438C3.39395 9.06563 3.35645 8.875 3.39395 8.6625L3.95645 5.71875C4.03145 5.31875 4.24395 5.00313 4.59395 4.77188C4.94395 4.54063 5.31895 4.4625 5.71895 4.5375L6.58145 4.70625L5.56895 9.84375ZM10.1252 4.125C9.7127 4.125 9.35957 3.97813 9.06582 3.68438C8.77207 3.39062 8.6252 3.0375 8.6252 2.625C8.6252 2.2125 8.77207 1.85938 9.06582 1.56563C9.35957 1.27187 9.7127 1.125 10.1252 1.125C10.5377 1.125 10.8908 1.27187 11.1846 1.56563C11.4783 1.85938 11.6252 2.2125 11.6252 2.625C11.6252 3.0375 11.4783 3.39062 11.1846 3.68438C10.8908 3.97813 10.5377 4.125 10.1252 4.125Z" fill="white" fill-opacity="0.7"/>
</g>
</svg>
