<svg width="41" height="40" viewBox="0 0 41 40" fill="none" xmlns="http://www.w3.org/2000/svg">
<path d="M0.152344 21.412C0.152344 20.4745 0.152344 19.5379 0.152344 18.6004C0.265558 18.368 0.220272 18.1152 0.249161 17.8711C0.619255 14.6698 1.62413 11.6884 3.43868 9.02C7.18491 3.50948 12.3975 0.47878 19.0357 0.0421335C22.9732 -0.216881 26.6679 0.724492 30.1042 2.69566C37.2312 6.78433 41.1984 15.1863 39.7938 23.2854C39.0122 27.7911 36.9564 31.6169 33.6037 34.7188C30.7616 37.348 27.4253 39.0117 23.6119 39.6901C22.9131 39.8145 22.2073 39.8975 21.5046 40H18.6992C18.2604 39.8748 17.8036 39.892 17.3578 39.8263C13.4367 39.2464 9.95671 37.6892 6.98034 35.0599C3.48553 31.9729 1.2962 28.1292 0.463878 23.5264C0.33739 22.826 0.255399 22.1171 0.153116 21.4128L0.152344 21.412ZM20.1023 8.52779C18.4923 8.5184 16.8815 8.52231 15.2731 8.60526C13.8005 8.68195 12.3967 9.00122 11.1904 9.91755C9.44295 11.2447 8.81051 13.1055 8.72696 15.2035C8.59891 18.4032 8.60126 21.6053 8.72696 24.805C8.7863 26.309 9.11892 27.7402 10.059 28.9672C11.384 30.6958 13.2329 31.307 15.309 31.4087C17.4109 31.5112 19.5151 31.4956 21.6186 31.4815C23.1622 31.4705 24.7144 31.5261 26.2408 31.2499C28.6636 30.8109 30.3251 29.4469 31.1028 27.0681C31.4596 25.9772 31.494 24.8457 31.5127 23.715C31.565 20.606 31.6533 17.4947 31.3987 14.3904C31.2972 13.1541 30.8912 12.0069 30.1198 11.0123C28.8034 9.31501 26.9779 8.71168 24.9315 8.60604C23.323 8.5231 21.713 8.5184 20.1023 8.52857V8.52779Z" fill="white"/>
<path d="M20.0914 10.5733C21.8685 10.6069 23.6471 10.5623 25.4218 10.7118C27.6892 10.9027 29.2032 12.4028 29.371 14.6815C29.5819 17.5393 29.5124 20.4017 29.4725 23.2634C29.4593 24.2103 29.4772 25.1634 29.243 26.0938C28.7644 27.9922 27.412 29.1488 25.4609 29.2935C22.5704 29.5079 19.676 29.4391 16.7824 29.396C15.8626 29.3827 14.9382 29.3968 14.0356 29.1699C12.1312 28.6902 10.9819 27.3458 10.8359 25.3872C10.6212 22.5036 10.6907 19.6145 10.7321 16.7278C10.7453 15.781 10.7297 14.8286 10.9663 13.8974C11.4449 12.0162 12.7879 10.8832 14.7227 10.7149C16.5099 10.56 18.3018 10.6054 20.0922 10.5733H20.0914ZM25.9653 20.0246C25.9738 16.7544 23.3886 14.1424 20.1304 14.129C16.8675 14.1157 14.255 16.7035 14.2378 19.9667C14.2198 23.2509 16.8199 25.8778 20.0929 25.8825C23.3519 25.8872 25.9567 23.2885 25.966 20.0246H25.9653ZM26.2252 15.2457C26.9709 15.2418 27.5846 14.6244 27.5854 13.8779C27.5854 13.1329 26.9709 12.5116 26.2276 12.5061C25.4655 12.5006 24.8433 13.129 24.8518 13.8951C24.8597 14.6447 25.4749 15.2488 26.226 15.2457H26.2252Z" fill="white"/>
<path d="M16.2852 19.984C16.2898 17.8595 18.0013 16.1723 20.1438 16.181C22.2426 16.1896 23.9236 17.9033 23.9189 20.0278C23.9142 22.1539 22.2028 23.8403 20.0611 23.8309C17.9639 23.8215 16.2813 22.107 16.2859 19.9832L16.2852 19.984Z" fill="white"/>
</svg>
