<svg width="34" height="34" viewBox="0 0 34 34" fill="none" xmlns="http://www.w3.org/2000/svg">
<g id="add_circle_FILL1_wght400_GRAD0_opsz48 1">
<path id="Vector" d="M16.0434 24.0834H18.1684V18.2042H24.083V16.0792H18.1684V9.91671H16.0434V16.0792H9.91634V18.2042H16.0434V24.0834ZM17.0091 31.1667C15.0557 31.1667 13.2199 30.7948 11.5018 30.0511C9.78372 29.3073 8.28127 28.2921 6.99447 27.0052C5.70766 25.7184 4.69238 24.2151 3.94863 22.4953C3.20488 20.7754 2.83301 18.9378 2.83301 16.9823C2.83301 15.0269 3.20488 13.1892 3.94863 11.4694C4.69238 9.74955 5.70766 8.25212 6.99447 6.97712C8.28127 5.70212 9.7846 4.69275 11.5045 3.949C13.2243 3.20525 15.0619 2.83337 17.0174 2.83337C18.9728 2.83337 20.8105 3.20525 22.5303 3.949C24.2502 4.69275 25.7476 5.70212 27.0226 6.97712C28.2976 8.25212 29.307 9.75143 30.0507 11.475C30.7945 13.1987 31.1663 15.0372 31.1663 16.9906C31.1663 18.9441 30.7945 20.7798 30.0507 22.4979C29.307 24.216 28.2976 25.7163 27.0226 26.9987C25.7476 28.2812 24.2483 29.2965 22.5247 30.0446C20.8011 30.7927 18.9625 31.1667 17.0091 31.1667Z" fill="#2667CF"/>
</g>
</svg>
