<svg width="137" height="71" viewBox="0 0 137 71" fill="none" xmlns="http://www.w3.org/2000/svg">
<g clip-path="url(#clip0_455_16)">
<path d="M34.73 70.08C24.22 70.08 13.72 70.08 3.21 70.08C2.85 70.08 2.49 70.08 2.13 70.06C1.05 69.98 0.29 69.28 0.11 68.23C0.02 67.69 0 67.16 0 66.62C0 63.18 0 59.74 0 56.3C0 55.92 0 55.54 0.01 55.15C0.01 54.9 0.05 54.66 0.11 54.42C0.3 53.69 0.76 53.2 1.46 52.94C1.95 52.76 2.46 52.66 2.98 52.65C3.34 52.65 3.7 52.65 4.06 52.65C14.86 52.65 25.66 52.65 36.45 52.65C36.79 52.65 37.13 52.65 37.46 52.63C37.7 52.61 37.95 52.57 38.18 52.49C38.61 52.34 38.79 51.96 38.68 51.52C38.61 51.25 38.49 51.01 38.3 50.81C38.13 50.63 37.96 50.45 37.78 50.28C32.1 44.6 26.42 38.93 20.75 33.24C14.22 26.67 7.69 20.11 1.14 13.55C0.64 13.05 0.24 12.49 0.08 11.78C0 11.43 0 11.07 0 10.71C0 8.53 0 6.35 0 4.17C0 3.68 0 3.18 0 2.69C0 2.33 0.07 1.97 0.19 1.63C0.37 1.13 0.68 0.730004 1.1 0.400004C1.44 0.130004 1.8 3.76918e-06 2.23 3.76918e-06C3.65 0.0100038 5.06 3.76918e-06 6.48 3.76918e-06C8.03 3.76918e-06 9.58 0.0300038 11.14 3.76918e-06C11.9 -0.0199962 12.48 0.240004 13 0.770004C14.13 1.93 15.29 3.06 16.43 4.21C21.37 9.13 26.3 14.06 31.24 18.98C37.33 25.05 43.42 31.11 49.5 37.17C49.68 37.34 49.86 37.51 50.04 37.68C50.25 37.86 50.47 38 50.73 38.09C51.54 38.38 52.3 37.99 52.5 37.16C52.56 36.9 52.58 36.63 52.59 36.36C52.6 36.14 52.59 35.91 52.59 35.69C52.59 27.66 52.59 19.63 52.59 11.6C52.59 8.95 52.57 6.29 52.57 3.64C52.57 3.19 52.59 2.74 52.65 2.3C52.76 1.48 53.16 0.820004 53.83 0.340004C54.11 0.140004 54.41 0.0100038 54.77 0.0300038C54.84 0.0300038 54.9 0.0300038 54.97 0.0300038C59.2 0.0300038 63.43 0.0400038 67.66 0.0300038C68.32 0.0300038 68.84 0.270004 69.27 0.730004C69.76 1.26 70.06 1.87 70.07 2.61C70.07 2.88 70.07 3.15 70.07 3.42C70.07 11.16 70.07 18.89 70.07 26.63C70.07 30.03 70.07 33.42 70.07 36.82C70.07 37.13 70.06 37.45 70.04 37.76C70.02 38.15 69.92 38.52 69.74 38.86C69.33 39.65 68.71 40.15 67.79 40.21C67.54 40.23 67.3 40.23 67.05 40.23C63.61 40.23 60.17 40.23 56.72 40.23C56.45 40.23 56.18 40.23 55.91 40.25C54.83 40.38 54.29 41.34 54.75 42.33C54.86 42.58 55.01 42.8 55.19 43C55.35 43.18 55.53 43.36 55.7 43.54C59.98 47.82 64.26 52.09 68.54 56.37C68.68 56.51 68.83 56.66 68.96 56.81C69.7 57.63 70.09 58.58 70.08 59.69C70.08 59.94 70.07 60.18 70.06 60.43C70.02 62.52 70.03 64.61 70.06 66.7C70.06 67.04 70.06 67.38 70.04 67.71C69.91 69.01 69.05 69.88 67.75 70.08C67.03 70.19 66.31 70.13 65.59 70.13C63.75 70.13 61.9 70.1 60.06 70.1C51.6 70.1 43.14 70.1 34.69 70.1L34.73 70.08Z" fill="black"/>
<path d="M102.08 70.08C112.59 70.08 123.09 70.08 133.6 70.08C133.96 70.08 134.32 70.08 134.68 70.06C135.76 69.98 136.52 69.28 136.7 68.23C136.79 67.69 136.81 67.16 136.81 66.62C136.81 63.18 136.81 59.74 136.81 56.3C136.81 55.92 136.81 55.54 136.8 55.15C136.8 54.9 136.76 54.66 136.7 54.42C136.51 53.69 136.05 53.2 135.35 52.94C134.86 52.76 134.35 52.66 133.83 52.65C133.47 52.65 133.11 52.65 132.75 52.65C121.95 52.65 111.15 52.65 100.36 52.65C100.02 52.65 99.68 52.65 99.3499 52.63C99.1099 52.61 98.8599 52.57 98.6299 52.49C98.1999 52.34 98.0199 51.96 98.1299 51.52C98.1999 51.25 98.32 51.01 98.51 50.81C98.68 50.63 98.8499 50.45 99.0299 50.28C104.71 44.6 110.39 38.93 116.06 33.24C122.61 26.68 129.14 20.11 135.69 13.55C136.19 13.05 136.59 12.49 136.75 11.78C136.83 11.42 136.83 11.07 136.83 10.71C136.83 8.53001 136.83 6.35001 136.83 4.17001C136.83 3.68001 136.83 3.18001 136.83 2.69001C136.83 2.33001 136.76 1.97001 136.64 1.63001C136.46 1.13001 136.15 0.730014 135.73 0.400014C135.4 0.140014 135.04 0.0100135 134.61 0.0100135C133.19 0.0200135 131.78 0.0100135 130.36 0.0100135C128.81 0.0100135 127.26 0.0400135 125.7 0.0100135C124.94 -0.00998646 124.36 0.250014 123.84 0.780014C122.71 1.94001 121.55 3.07001 120.41 4.22001C115.47 9.14001 110.54 14.07 105.6 18.99C99.5099 25.06 93.4199 31.12 87.3399 37.18C87.1599 37.35 86.98 37.52 86.8 37.69C86.59 37.87 86.37 38.01 86.11 38.1C85.3 38.39 84.5399 38 84.3399 37.17C84.2799 36.91 84.26 36.64 84.25 36.37C84.24 36.15 84.25 35.92 84.25 35.7C84.25 27.67 84.25 19.64 84.25 11.61C84.25 8.96001 84.2699 6.30001 84.2699 3.65001C84.2699 3.20001 84.25 2.75001 84.19 2.31001C84.08 1.49001 83.68 0.830014 83.01 0.350014C82.73 0.150014 82.43 0.0200135 82.07 0.0400135C82 0.0400135 81.94 0.0400135 81.87 0.0400135C77.64 0.0400135 73.41 0.0500135 69.18 0.0400135C68.52 0.0400135 68 0.280014 67.57 0.740014C67.08 1.27001 66.7799 1.88001 66.7699 2.62001C66.7699 2.89001 66.7699 3.16001 66.7699 3.43001C66.7699 11.17 66.7699 18.9 66.7699 26.64C66.7699 30.04 66.7699 33.43 66.7699 36.83C66.7699 37.14 66.78 37.46 66.8 37.77C66.82 38.16 66.9199 38.53 67.0999 38.87C67.5099 39.66 68.13 40.16 69.05 40.22C69.3 40.24 69.54 40.24 69.79 40.24C73.23 40.24 76.67 40.24 80.12 40.24C80.39 40.24 80.66 40.24 80.93 40.26C82.01 40.39 82.5499 41.35 82.0899 42.34C81.9799 42.59 81.83 42.81 81.65 43.01C81.49 43.19 81.31 43.37 81.14 43.55C76.86 47.83 72.58 52.1 68.3 56.38C68.16 56.52 68.0099 56.67 67.8799 56.82C67.1399 57.64 66.75 58.59 66.76 59.7C66.76 59.95 66.7699 60.19 66.7799 60.44C66.8199 62.53 66.8099 64.62 66.7799 66.71C66.7799 67.05 66.78 67.39 66.8 67.72C66.93 69.02 67.7899 69.89 69.0899 70.09C69.8099 70.2 70.53 70.14 71.25 70.14C73.09 70.14 74.9399 70.11 76.78 70.11C85.24 70.11 93.7 70.11 102.15 70.11L102.08 70.08Z" fill="black"/>
</g>
<defs>
<clipPath id="clip0_455_16">
<rect width="136.81" height="70.13" fill="white"/>
</clipPath>
</defs>
</svg>
