<svg width="41" height="41" viewBox="0 0 41 41" fill="none" xmlns="http://www.w3.org/2000/svg">
<path d="M0.000642391 41C0.29293 39.9365 0.567231 38.933 0.844101 37.9295C1.48649 35.6013 2.12503 33.2712 2.78027 30.9461C2.86442 30.6485 2.82588 30.4173 2.67748 30.1496C0.719477 26.6199 -0.10471 22.827 0.231903 18.8259C0.951381 10.2757 6.75281 3.22518 15.1514 0.95891C22.0301 -0.897287 28.3249 0.52584 33.7981 5.0916C37.4507 8.13778 39.7357 12.052 40.5663 16.7206C41.6854 23.0097 40.1738 28.6601 36.0253 33.5522C32.9521 37.1758 29.0136 39.4268 24.3273 40.3127C19.7651 41.175 15.3942 40.5177 11.2515 38.4316C10.9213 38.2655 10.6348 38.2413 10.2847 38.3339C6.99949 39.2032 3.71109 40.0598 0.422693 40.9182C0.312844 40.947 0.199141 40.9617 0 41H0.000642391ZM4.91108 36.1851C5.10636 36.1391 5.25476 36.1072 5.40122 36.0695C7.21854 35.5988 9.03844 35.1376 10.8506 34.6477C11.1872 34.557 11.4391 34.603 11.7288 34.7761C15.4675 37.0053 19.4998 37.7437 23.7723 36.9261C33.2373 35.1146 39.2578 25.7774 37.0023 16.4836C34.9236 7.91805 26.5545 2.43952 17.7448 3.87542C10.1941 5.10565 4.03614 11.4695 3.63722 19.6691C3.4779 22.9401 4.19931 26.038 5.92413 28.837C6.46823 29.7197 6.56202 30.4575 6.24468 31.4156C5.73141 32.9652 5.35818 34.5602 4.91172 36.1864L4.91108 36.1851Z" fill="white"/>
<path d="M10.1975 15.8666C10.1821 14.181 10.8528 12.7936 12.0566 11.6368C12.4202 11.2874 12.8493 11.0901 13.3607 11.092C13.6889 11.0933 14.0185 11.1284 14.3442 11.1054C14.851 11.0696 15.1638 11.3219 15.3456 11.7441C15.9431 13.134 16.5276 14.5297 17.1077 15.9266C17.2304 16.2224 17.1514 16.5053 16.9792 16.7723C16.6015 17.3574 16.1718 17.9055 15.7195 18.4324C15.4266 18.7735 15.4022 19.0827 15.6334 19.4685C17.2972 22.2368 19.6118 24.245 22.6393 25.4338C23.0518 25.5954 23.3832 25.5225 23.662 25.1725C24.1663 24.5401 24.6963 23.9269 25.1845 23.2831C25.4691 22.9081 25.7948 22.7913 26.222 22.9675C27.7085 23.5807 29.1416 24.3064 30.5729 25.0345C30.7861 25.1431 30.8677 25.3213 30.8735 25.5545C30.9088 27.0792 30.4515 28.3407 29.0825 29.2119C27.4085 30.278 25.656 30.3604 23.7969 29.8411C18.9874 28.4978 15.417 25.5123 12.5506 21.57C11.6114 20.2784 10.7654 18.9479 10.3761 17.3766C10.2528 16.8777 10.2059 16.3744 10.1982 15.866L10.1975 15.8666Z" fill="white"/>
</svg>
