<svg width="31" height="31" viewBox="0 0 31 31" fill="none" xmlns="http://www.w3.org/2000/svg">
<path d="M14.6288 21.9583H16.5663V16.5979H21.959V14.6604H16.5663V9.04168H14.6288V14.6604H9.04232V16.5979H14.6288V21.9583ZM15.5092 28.4167C13.7282 28.4167 12.0544 28.0776 10.4879 27.3995C8.9214 26.7214 7.55152 25.7957 6.37826 24.6224C5.20499 23.4491 4.2793 22.0785 3.60117 20.5104C2.92305 18.9423 2.58398 17.2668 2.58398 15.4839C2.58398 13.701 2.92305 12.0255 3.60117 10.4574C4.2793 8.88927 5.20499 7.52397 6.37826 6.36147C7.55152 5.19897 8.9222 4.27866 10.4903 3.60053C12.0584 2.92241 13.7339 2.58334 15.5168 2.58334C17.2997 2.58334 18.9752 2.92241 20.5433 3.60053C22.1114 4.27866 23.4767 5.19897 24.6392 6.36147C25.8017 7.52397 26.722 8.89098 27.4001 10.4625C28.0783 12.034 28.4173 13.7103 28.4173 15.4914C28.4173 17.2725 28.0783 18.9463 27.4001 20.5128C26.722 22.0793 25.8017 23.4472 24.6392 24.6165C23.4767 25.7858 22.1097 26.7115 20.5382 27.3935C18.9666 28.0756 17.2903 28.4167 15.5092 28.4167Z" fill="white"/>
</svg>
